<svg width="119" height="32" viewBox="0 0 119 32" fill="none" xmlns="http://www.w3.org/2000/svg">
<g clip-path="url(#clip0_609_4)">
<path d="M65.9734 11.8931C65.9734 10.1161 67.1484 9.55312 68.4354 9.55312C69.4734 9.55312 70.8434 10.3431 71.7404 11.3011L74.0354 8.59512C72.8894 7.04512 70.5654 5.97412 68.6624 5.97412C64.8594 5.97412 62.1094 8.20112 62.1094 11.8931C62.1094 18.7431 70.4814 16.5691 70.4814 20.4031C70.4814 21.5851 69.3334 22.6291 68.0194 22.6291C65.9464 22.6291 65.2744 21.6161 64.3224 20.5441L61.7744 23.1931C63.4044 25.1931 65.4144 26.2091 67.8214 26.2091C71.4344 26.2091 74.3404 23.9551 74.3404 20.4311C74.3404 12.8271 65.9674 15.1901 65.9674 11.8931H65.9734ZM117.767 22.9731C115.696 22.9731 115.107 22.0771 115.107 20.7051V14.6301H118.327V11.5521H115.107V7.49112L111.553 9.08612V21.4601C111.553 24.6251 113.737 26.2201 116.731 26.2201C117.201 26.2281 117.671 26.1901 118.133 26.1081L119 22.9161C118.609 22.9431 118.16 22.9701 117.767 22.9701V22.9731ZM91.4644 18.4801C91.4644 14.1341 87.8094 10.9201 83.6374 10.9201C79.8844 10.9201 76.5434 14.0851 76.5434 18.7061V31.0561H80.0534V24.3881C81.2234 25.5351 82.4374 26.0411 84.1714 26.0411C88.0914 26.0411 91.4644 22.7651 91.4644 18.4801ZM88.1404 18.4361C88.1404 19.4926 87.7207 20.5058 86.9737 21.2529C86.2266 21.9999 85.2134 22.4196 84.1569 22.4196C83.1004 22.4196 82.0872 21.9999 81.3402 21.2529C80.5931 20.5058 80.1734 19.4926 80.1734 18.4361C80.1734 17.3796 80.5931 16.3664 81.3402 15.6194C82.0872 14.8723 83.1004 14.4526 84.1569 14.4526C85.2134 14.4526 86.2266 14.8723 86.9737 15.6194C87.7207 16.3664 88.1404 17.3796 88.1404 18.4361Z" fill="#33475B"/>
<path d="M102.806 10.75V7.22305C103.272 7.00522 103.667 6.65949 103.944 6.22611C104.221 5.79272 104.37 5.28951 104.372 4.77505V4.69405C104.372 3.19405 103.156 1.97805 101.656 1.97805H101.575C100.855 1.97805 100.164 2.26419 99.6545 2.77354C99.1451 3.28289 98.859 3.97372 98.859 4.69405V4.77505C98.8614 5.28951 99.0098 5.79272 99.287 6.22611C99.5643 6.65949 99.9589 7.00522 100.425 7.22305V10.75C99.0854 10.9552 97.8238 11.5106 96.768 12.36L87.095 4.82605C87.164 4.57705 87.2 4.32105 87.204 4.06405C87.2052 3.45875 87.0268 2.8667 86.6915 2.36279C86.3561 1.85887 85.8789 1.46573 85.3201 1.23309C84.7613 1.00044 84.146 0.938757 83.5522 1.05583C82.9583 1.17289 82.4125 1.46346 81.9838 1.89077C81.5551 2.31808 81.2627 2.86293 81.1437 3.45641C81.0247 4.04989 81.0844 4.66534 81.3152 5.2249C81.546 5.78446 81.9376 6.263 82.4404 6.59998C82.9432 6.93696 83.5347 7.11725 84.14 7.11805C84.6695 7.11555 85.1892 6.97418 85.647 6.70805L95.172 14.12C94.3163 15.4127 93.8699 16.9332 93.891 18.4832C93.912 20.0333 94.3995 21.5411 95.29 22.81L92.393 25.708C92.1588 25.6332 91.9148 25.5934 91.669 25.59C91.1721 25.5904 90.6865 25.7381 90.2736 26.0144C89.8606 26.2907 89.5388 26.6832 89.3489 27.1423C89.1589 27.6014 89.1093 28.1065 89.2064 28.5938C89.3034 29.0811 89.5427 29.5287 89.894 29.88C90.2454 30.2313 90.6929 30.4706 91.1802 30.5677C91.6675 30.6647 92.1726 30.6151 92.6317 30.4251C93.0909 30.2352 93.4833 29.9134 93.7596 29.5004C94.0359 29.0875 94.1836 28.6019 94.184 28.105C94.1808 27.8592 94.141 27.6152 94.066 27.381L96.932 24.514C97.8666 25.2336 98.9534 25.7296 100.109 25.9642C101.265 26.1987 102.459 26.1656 103.601 25.8673C104.742 25.5691 105.799 25.0135 106.693 24.2433C107.586 23.4731 108.291 22.5087 108.754 21.4239C109.217 20.3391 109.426 19.1627 109.364 17.9849C109.302 16.807 108.971 15.659 108.397 14.6287C107.823 13.5984 107.02 12.7132 106.051 12.0409C105.082 11.3686 103.972 10.927 102.806 10.75V10.75ZM101.618 22.35C101.088 22.3646 100.561 22.2729 100.067 22.0802C99.5739 21.8876 99.1239 21.598 98.7441 21.2285C98.3643 20.859 98.0624 20.4172 97.8563 19.929C97.6501 19.4409 97.5439 18.9164 97.5439 18.3865C97.5439 17.8567 97.6501 17.3322 97.8563 16.8441C98.0624 16.3559 98.3643 15.9141 98.7441 15.5446C99.1239 15.1751 99.5739 14.8855 100.067 14.6928C100.561 14.5002 101.088 14.4085 101.618 14.423C102.645 14.459 103.617 14.8919 104.331 15.6307C105.045 16.3695 105.444 17.3564 105.444 18.3836C105.445 19.4108 105.047 20.3981 104.334 21.1376C103.621 21.8771 102.649 22.3111 101.622 22.348" fill="#FF7A59"/>
<path d="M13.4941 17.5645H5.48242V26H2.02344V6.09375H14.6699V8.88281H5.48242V14.8027H13.4941V17.5645ZM25.4707 26C25.3249 25.7174 25.1973 25.2572 25.0879 24.6191C24.0306 25.722 22.7363 26.2734 21.2051 26.2734C19.7194 26.2734 18.5072 25.8496 17.5684 25.002C16.6296 24.1543 16.1602 23.1061 16.1602 21.8574C16.1602 20.2806 16.7435 19.0729 17.9102 18.2344C19.0859 17.3867 20.763 16.9629 22.9414 16.9629H24.9785V15.9922C24.9785 15.2266 24.7643 14.6159 24.3359 14.1602C23.9076 13.6953 23.2559 13.4629 22.3809 13.4629C21.6243 13.4629 21.0046 13.6543 20.5215 14.0371C20.0384 14.4108 19.7969 14.8893 19.7969 15.4727H16.4746C16.4746 14.6615 16.7435 13.9049 17.2812 13.2031C17.819 12.4922 18.5482 11.9362 19.4688 11.5352C20.3984 11.1341 21.4329 10.9336 22.5723 10.9336C24.304 10.9336 25.6849 11.3711 26.7148 12.2461C27.7448 13.112 28.2734 14.3333 28.3008 15.9102V22.582C28.3008 23.9128 28.4876 24.9746 28.8613 25.7676V26H25.4707ZM21.8203 23.6074C22.4766 23.6074 23.0918 23.4479 23.666 23.1289C24.2493 22.8099 24.6868 22.3815 24.9785 21.8438V19.0547H23.1875C21.957 19.0547 21.0319 19.2689 20.4121 19.6973C19.7923 20.1257 19.4824 20.7318 19.4824 21.5156C19.4824 22.1536 19.6921 22.6641 20.1113 23.0469C20.5397 23.4206 21.1094 23.6074 21.8203 23.6074ZM36.5859 19.6562L35.1094 21.1738V26H31.7871V5H35.1094V17.1133L36.1484 15.8145L40.2363 11.207H44.2285L38.7324 17.373L44.8164 26H40.9746L36.5859 19.6562ZM52.6504 26.2734C50.5449 26.2734 48.8359 25.6126 47.5234 24.291C46.2201 22.9603 45.5684 21.1921 45.5684 18.9863V18.5762C45.5684 17.0996 45.8509 15.7826 46.416 14.625C46.9902 13.4583 47.7923 12.5514 48.8223 11.9043C49.8522 11.2572 51.0007 10.9336 52.2676 10.9336C54.2819 10.9336 55.8359 11.5762 56.9297 12.8613C58.0326 14.1465 58.584 15.9648 58.584 18.3164V19.6562H48.918C49.0182 20.8776 49.4238 21.8438 50.1348 22.5547C50.8548 23.2656 51.7572 23.6211 52.8418 23.6211C54.3639 23.6211 55.6035 23.0059 56.5605 21.7754L58.3516 23.4844C57.7591 24.3685 56.9661 25.0566 55.9727 25.5488C54.9883 26.0319 53.8809 26.2734 52.6504 26.2734ZM52.2539 13.5996C51.3424 13.5996 50.6042 13.9186 50.0391 14.5566C49.4831 15.1947 49.1276 16.0833 48.9727 17.2227H55.3027V16.9766C55.2298 15.8646 54.9336 15.026 54.4141 14.4609C53.8945 13.8867 53.1745 13.5996 52.2539 13.5996Z" fill="#33475B"/>
</g>
<defs>
<clipPath id="clip0_609_4">
<rect width="119" height="32" fill="white"/>
</clipPath>
</defs>
</svg>
